# xmcd CD database file
#
# Track frame offsets:
#	150
#	12367
#	25740
#	35764
#	53132
#	67202
#	83342
#	97525
#	108102
#	121945
#	139405
#
# Disc length: 2032 seconds
#
# Revision: 0
# Processed by: cddbd v1.4PL0 Copyright (c) Steve Scherf et al.
# Submitted via: CDex 1.50Beta7
#
DISCID=8407ee0b
DTITLE=Will Chandler - Breaking Strings
DYEAR=1900
DGENRE=Country
TTITLE0=It's Not Me
TTITLE1=Our Hearts Are Gonna Win
TTITLE2=Fair And A Campfire
TTITLE3=How Love Feels
TTITLE4=Going Through The Motions
TTITLE5=Something Big For Something Small
TTITLE6=The Diary
TTITLE7=It's Been Here All The Time
TTITLE8=Out Of Reach
TTITLE9=One And Only
TTITLE10=Santa Claus Or Jesus
EXTD=
EXTT0=
EXTT1=
EXTT2=
EXTT3=
EXTT4=
EXTT5=
EXTT6=
EXTT7=
EXTT8=
EXTT9=
EXTT10=
PLAYORDER=
